# xmcd CD database file
#
# Track frame offsets:
#	150
#	21668
#	36358
#	55873
#	75740
#	103910
#	130715
#	149383
#	167943
#	188778
#	212860
#
# Disc length: 3057 seconds
#
# Revision: 0
# Processed by: cddbd v1.4PL0 Copyright (c) Steve Scherf et al.
# Submitted via: CDex 1.50
#
DISCID=a40bef0b
DTITLE=Rodolfo "Popo" Sanchez and Yasu - Nuevo amanecer
DYEAR=1900
DGENRE=Jazz
TTITLE0=Media noche en Arcano
TTITLE1=Prisionero del mar
TTITLE2=Bésame mucho
TTITLE3=Negra consentida
TTITLE4=La llorona
TTITLE5=Ternura
TTITLE6=Fiesta latina
TTITLE7=Nocturnal
TTITLE8=Muchachas mexicanas
TTITLE9=Veinte años después
TTITLE10=Esperándote
EXTD=
EXTT0=
EXTT1=
EXTT2=
EXTT3=
EXTT4=
EXTT5=
EXTT6=
EXTT7=
EXTT8=
EXTT9=
EXTT10=
PLAYORDER=
